<svg width="134" height="50" viewBox="0 0 134 50" fill="none" xmlns="http://www.w3.org/2000/svg">
<path d="M6 39H3.62396e-05V24H6V39Z" fill="white"/>
<path d="M17.015 39H11V17H17.015V39Z" fill="white"/>
<path d="M28 39H22V10H28V39Z" fill="white"/>
<path d="M55 10H61V25H55V10Z" fill="#FFCC01"/>
<path d="M43.985 10H50V32H43.985V10Z" fill="#FFCC01"/>
<path d="M33 10H39V39H33V10Z" fill="#FFCC01"/>
<path d="M74.6236 35L76.304 29.9787H83.9602L85.6506 35H89.5881L82.4091 14.6364H77.8551L70.6861 35H74.6236ZM77.2983 27.0156L80.0526 18.8125H80.2116L82.9659 27.0156H77.2983ZM91.7102 14.6364V35H95.25V20.9801H95.4389L101.067 34.9403H103.712L109.34 21.0099H109.528V35H113.068V14.6364H108.554L102.509 29.392H102.27L96.2244 14.6364H91.7102ZM116.525 35H120.214V28.9347L122.471 26.2699L128.547 35H132.981L125.037 23.7741L132.912 14.6364H128.407L120.463 23.9929H120.214V14.6364H116.525V35Z" fill="white"/>
</svg>
